<svg version="1.1" xmlns="http://www.w3.org/2000/svg" viewBox="0 0 739.8625491631008 192.63778686523438" width="1479.7250983262015" height="385.27557373046875">
  <!-- svg-source:excalidraw -->
  
  <defs>
    <style>
      @font-face {
        font-family: "Virgil";
        src: url("https://excalidraw.com/Virgil.woff2");
      }
      @font-face {
        font-family: "Cascadia";
        src: url("https://excalidraw.com/Cascadia.woff2");
      }
    </style>
  </defs>
  <rect x="0" y="0" width="739.8625491631008" height="192.63778686523438" fill="#ffffff"></rect><g stroke-linecap="round" transform="translate(175.06298861622577 15.24078369140625) rotate(0 54.188232421875 83.69850158691406)"><path d="M-1.97 1.47 C22.73 -0.34, 46.3 0.9, 110.08 0.78 M-0.89 -0.77 C33.14 -0.27, 67.93 -0.57, 108.74 0.77 M109.18 0.4 C110.36 48.54, 107.37 93.84, 108.39 167.84 M109.32 0.44 C108.19 42.17, 107.93 85.91, 107.38 166.55 M107.82 165.49 C75.4 166.25, 43.99 168.83, 0.85 166.38 M108.14 167.68 C80.37 167.7, 53.18 168.64, 0.01 167.2 M0.54 169.38 C-2.14 109.97, -1.45 49.1, 1.09 1.47 M-0.92 166.45 C-0.34 106.93, 0.4 47.83, 0.9 -0.47" stroke="#000000" stroke-width="1" fill="none"></path></g><g stroke-linecap="round" transform="translate(442.641907073257 17.577606201171875) rotate(0 33.748870849609375 70.23536682128906)"><path d="M1.16 1.14 C22.67 -0.99, 49.58 -1.09, 69.24 0.5 M0.25 -0.16 C18.31 -0.72, 37.35 -0.98, 68.43 0.62 M68.4 1.66 C68.72 38.28, 67.78 75.14, 69.4 139.2 M66.93 -0.19 C66.36 41.38, 66.76 83.67, 68.42 140.46 M67.17 138.81 C52.02 141.89, 36 142.14, 1.9 139.78 M67.55 140.94 C45.9 140.36, 22.07 139.77, -0.71 140.41 M0.02 141.62 C-0.02 85.17, -1.06 29.64, -1.67 -0.74 M0.24 139.89 C0.76 100.55, 0.98 62.42, -0.53 -0.26" stroke="#000000" stroke-width="1" fill="none"></path></g><g stroke-linecap="round" transform="translate(650.7560428154445 10) rotate(0 39.553253173828125 80.37188720703125)"><path d="M43.81 1.53 C50.05 1.57, 58.13 6.95, 63.28 14.12 C68.42 21.28, 72.11 33.1, 74.69 44.51 C77.28 55.91, 79.1 69.74, 78.79 82.54 C78.47 95.34, 75.99 110.16, 72.79 121.3 C69.6 132.44, 64.67 142.75, 59.63 149.39 C54.58 156.04, 48.59 160.67, 42.52 161.18 C36.45 161.7, 28.99 158.13, 23.18 152.49 C17.36 146.84, 11.48 137.48, 7.64 127.3 C3.81 117.13, 0.89 103.8, 0.15 91.44 C-0.59 79.08, 0.88 65.21, 3.19 53.14 C5.51 41.07, 9.6 27.55, 14.04 19.02 C18.47 10.48, 23.59 4.54, 29.8 1.92 C36.01 -0.71, 46.86 1.93, 51.3 3.24 C55.74 4.55, 56.92 8.4, 56.45 9.75 M37.11 -0.19 C43.09 -1.88, 52.26 2.66, 57.96 8.42 C63.65 14.18, 67.74 23.93, 71.29 34.35 C74.85 44.77, 78.24 58.19, 79.26 70.95 C80.28 83.71, 79.92 99.28, 77.42 110.93 C74.91 122.58, 69.29 132.71, 64.22 140.86 C59.16 149.01, 52.82 156.85, 47.03 159.82 C41.23 162.79, 35.54 162.4, 29.47 158.68 C23.4 154.95, 15.21 146.62, 10.61 137.46 C6.01 128.29, 3.28 115.99, 1.88 103.69 C0.49 91.38, 0.94 76.28, 2.24 63.62 C3.53 50.95, 6 37.18, 9.66 27.71 C13.33 18.23, 19.72 11.58, 24.22 6.77 C28.73 1.95, 34.36 -0.52, 36.69 -1.19 C39.03 -1.86, 37.74 1.43, 38.26 2.73" stroke="#000000" stroke-width="1" fill="none"></path></g><g transform="translate(194.66937289356952 36.36138916015625) rotate(0 38 25)"><text x="0" y="18" font-family="Virgil, Segoe UI Emoji" font-size="20px" fill="#000000" text-anchor="start" style="white-space: pre;" direction="ltr">Reverse</text><text x="0" y="43" font-family="Virgil, Segoe UI Emoji" font-size="20px" fill="#000000" text-anchor="start" style="white-space: pre;" direction="ltr">Proxy</text></g><g transform="translate(457.8907779228664 75.31297302246094) rotate(0 18.5 12.5)"><text x="18.5" y="18" font-family="Virgil, Segoe UI Emoji" font-size="20px" fill="#000000" text-anchor="middle" style="white-space: pre;" direction="ltr">API</text></g><g transform="translate(655.8092959892726 65.37188720703125) rotate(0 34.5 25)"><text x="34.5" y="18" font-family="Virgil, Segoe UI Emoji" font-size="20px" fill="#000000" text-anchor="middle" style="white-space: pre;" direction="ltr">Daten-</text><text x="34.5" y="43" font-family="Virgil, Segoe UI Emoji" font-size="20px" fill="#000000" text-anchor="middle" style="white-space: pre;" direction="ltr">bank</text></g><g stroke-linecap="round"><g transform="translate(518.9741228972352 47.428778264671564) rotate(0 68.0707638186542 -1.744646265017792)"><path d="M-0.48 0.49 C21.94 0.21, 111.68 -1.77, 134.27 -2.41 M1.48 -0.3 C24.31 -0.83, 114.48 -3.69, 136.62 -3.97" stroke="#000000" stroke-width="1" fill="none"></path></g><g transform="translate(518.9741228972352 47.428778264671564) rotate(0 68.0707638186542 -1.744646265017792)"><path d="M109.49 5.8 C118.33 4.15, 124.55 -0.66, 137.03 -3.53 M108.96 6.36 C117.92 3.55, 127.02 0.61, 135.77 -2.98" stroke="#000000" stroke-width="1" fill="none"></path></g><g transform="translate(518.9741228972352 47.428778264671564) rotate(0 68.0707638186542 -1.744646265017792)"><path d="M109 -14.71 C117.86 -10.62, 124.21 -9.7, 137.03 -3.53 M108.48 -14.15 C117.46 -9.89, 126.73 -5.77, 135.77 -2.98" stroke="#000000" stroke-width="1" fill="none"></path></g></g><g stroke-linecap="round"><g transform="translate(515.0872813426681 141.70744638331234) rotate(179.5902613535598 67.91061602120755 -1.9131594624370223)"><path d="M1.07 0.79 C23.7 0.15, 113.52 -3.99, 135.66 -4.61 M0.17 0.16 C22.72 -0.3, 112.4 -2.81, 135.08 -3.68" stroke="#000000" stroke-width="1" fill="none"></path></g><g transform="translate(515.0872813426681 141.70744638331234) rotate(179.5902613535598 67.91061602120755 -1.9131594624370223)"><path d="M108.54 8.66 C113.4 2.23, 124.19 0.19, 133.81 -2.12 M107.81 6.79 C115.93 4.53, 123.44 0.37, 135.33 -3.36" stroke="#000000" stroke-width="1" fill="none"></path></g><g transform="translate(515.0872813426681 141.70744638331234) rotate(179.5902613535598 67.91061602120755 -1.9131594624370223)"><path d="M107.88 -11.85 C112.8 -12.39, 123.77 -8.54, 133.81 -2.12 M107.15 -13.72 C115.47 -10.06, 123.18 -8.28, 135.33 -3.36" stroke="#000000" stroke-width="1" fill="none"></path></g></g><g stroke-linecap="round" transform="translate(13.012512542007016 18.30926513671875) rotate(0 19.533660888671875 16.88848876953125)"><path d="M14.82 0.44 C18.6 -0.72, 23.59 -0.34, 27.49 1.29 C31.4 2.93, 36.32 6.77, 38.25 10.24 C40.17 13.72, 40.46 18.82, 39.03 22.13 C37.6 25.44, 33.34 28.09, 29.66 30.1 C25.99 32.12, 20.93 34.31, 17 34.22 C13.07 34.13, 8.87 32.12, 6.1 29.56 C3.32 26.99, 0.74 22.53, 0.35 18.84 C-0.04 15.16, 0.78 10.48, 3.77 7.45 C6.77 4.41, 15.33 1.84, 18.32 0.64 C21.32 -0.56, 21.71 0.23, 21.72 0.25 M18.41 0.42 C22.45 0.07, 28.51 1.41, 31.97 3.59 C35.42 5.78, 38.54 10.08, 39.14 13.53 C39.74 16.99, 37.91 20.9, 35.55 24.31 C33.19 27.72, 28.75 32.45, 24.97 33.99 C21.19 35.54, 16.82 35.09, 12.89 33.59 C8.96 32.1, 3.32 28.37, 1.37 25.04 C-0.57 21.7, 0.47 16.99, 1.21 13.59 C1.95 10.19, 2.54 6.97, 5.79 4.62 C9.04 2.27, 18.38 0.24, 20.71 -0.49 C23.04 -1.23, 20.16 0, 19.77 0.21" stroke="#000000" stroke-width="1" fill="none"></path></g><g stroke-linecap="round"><g transform="translate(32.99223777283089 51.58406205610794) rotate(0 0.003395486751017529 36.80216974016744)"><path d="M-0.87 -0.93 C-0.71 11.34, 0.37 60.81, 0.56 72.94 M0.87 1.2 C0.99 13.74, 0.29 62.62, 0.12 74.53" stroke="#000000" stroke-width="1" fill="none"></path></g></g><g stroke-linecap="round"><g transform="translate(34.318814330089936 75.17763664016115) rotate(0 12.53283743309703 -9.014194031734093)"><path d="M-0.94 -0.74 C3.27 -3.99, 21.56 -16.44, 26 -19.51 M0.77 1.48 C4.84 -1.56, 21.5 -14.82, 25.6 -18.02" stroke="#000000" stroke-width="1" fill="none"></path></g></g><g stroke-linecap="round"><g transform="translate(35.83211167117662 125.51076374864829) rotate(0 -12.853443581043223 8.691821847498346)"><path d="M0.13 -0.89 C-4.06 2.1, -20.82 14.08, -25.3 17.15 M-1.27 1.26 C-5.53 4.45, -21.4 15.37, -25.83 18.27" stroke="#000000" stroke-width="1" fill="none"></path></g></g><g stroke-linecap="round"><g transform="translate(60.31284120775331 128.7487620174694) rotate(77.75068310023437 -13.499591644118013 9.238320808928364)"><path d="M0.3 0.49 C-3.94 3.47, -22.03 15.84, -26.26 18.77 M-1 -0.3 C-5.34 2.27, -23.25 13.79, -27.3 17.09" stroke="#000000" stroke-width="1" fill="none"></path></g></g><g stroke-linecap="round"><g transform="translate(8.80532139907072 74.7191030930199) rotate(89.88234920655755 13.229080644528466 -10.396274124611239)"><path d="M0.84 0.45 C4.73 -2.91, 20.16 -15.96, 24.28 -19.22 M-0.18 -0.36 C4.03 -4.19, 22.41 -18.35, 26.64 -21.24" stroke="#000000" stroke-width="1" fill="none"></path></g></g><g stroke-linecap="round"><g transform="translate(60.04780991336406 90.84430700592816) rotate(0 57.33579591074539 1.1758866685252372)"><path d="M1.2 -0.55 C19.95 -0.24, 93.34 1.23, 112.01 1.8 M0.37 1.77 C19.55 2.22, 95.59 2.48, 114.31 2.9" stroke="#000000" stroke-width="1" fill="none"></path></g><g transform="translate(60.04780991336406 90.84430700592816) rotate(0 57.33579591074539 1.1758866685252372)"><path d="M85.08 11.52 C91.88 10.71, 100.89 5.87, 115.09 4.04 M85.46 12.57 C95.71 9.31, 105.51 6.29, 114.15 3.02" stroke="#000000" stroke-width="1" fill="none"></path></g><g transform="translate(60.04780991336406 90.84430700592816) rotate(0 57.33579591074539 1.1758866685252372)"><path d="M85.32 -9 C92.05 -4.56, 100.99 -4.16, 115.09 4.04 M85.7 -7.95 C96.01 -4.41, 105.73 -0.64, 114.15 3.02" stroke="#000000" stroke-width="1" fill="none"></path></g></g><g transform="translate(85.37487512110556 65.76157107730597) rotate(0 26.5 12.5)"><text x="0" y="18" font-family="Virgil, Segoe UI Emoji" font-size="20px" fill="#000000" text-anchor="start" style="white-space: pre;" direction="ltr">https</text></g><g stroke-linecap="round"><g transform="translate(297.37003114915956 66.4845796666171) rotate(0 69.39524140943564 0.5713192734964707)"><path d="M0.31 -0.17 C23.44 0.27, 116.77 2.14, 139.77 2.44 M-0.98 -1.3 C21.97 -1.2, 116.27 -0.04, 139.31 0.65" stroke="#000000" stroke-width="1" fill="none"></path></g><g transform="translate(297.37003114915956 66.4845796666171) rotate(0 69.39524140943564 0.5713192734964707)"><path d="M110.65 11.91 C122.96 5.66, 132.59 3.2, 139.63 2.24 M109.96 10.04 C121.99 5.82, 132.55 3.04, 140.08 1.13" stroke="#000000" stroke-width="1" fill="none"></path></g><g transform="translate(297.37003114915956 66.4845796666171) rotate(0 69.39524140943564 0.5713192734964707)"><path d="M111.05 -8.61 C123.18 -6.94, 132.65 -1.48, 139.63 2.24 M110.36 -10.48 C122.23 -6.64, 132.64 -1.35, 140.08 1.13" stroke="#000000" stroke-width="1" fill="none"></path></g></g><g transform="translate(336.41455352131857 42.283246880750596) rotate(0 21 12.5)"><text x="0" y="18" font-family="Virgil, Segoe UI Emoji" font-size="20px" fill="#000000" text-anchor="start" style="white-space: pre;" direction="ltr">http</text></g><g stroke-linecap="round"><g transform="translate(434.1019037077533 103.6991986962691) rotate(0 -68.15645494454202 0.0950113569839175)"><path d="M-0.12 -1.13 C-22.51 -1.01, -112.86 1, -135.48 1.32 M-1.64 0.88 C-24.05 0.64, -113.7 0.1, -136.19 -0.25" stroke="#000000" stroke-width="1" fill="none"></path></g><g transform="translate(434.1019037077533 103.6991986962691) rotate(0 -68.15645494454202 0.0950113569839175)"><path d="M-109.79 -9.48 C-111.89 -8.09, -118.48 -5.03, -136.02 -1.11 M-107.55 -11.1 C-117.8 -5.82, -129.15 -2.82, -136 -0.79" stroke="#000000" stroke-width="1" fill="none"></path></g><g transform="translate(434.1019037077533 103.6991986962691) rotate(0 -68.15645494454202 0.0950113569839175)"><path d="M-110 11.04 C-112.16 8.24, -118.71 7.11, -136.02 -1.11 M-107.75 9.42 C-118.11 7.22, -129.37 2.72, -136 -0.79" stroke="#000000" stroke-width="1" fill="none"></path></g></g></svg>